<svg xmlns="http://www.w3.org/2000/svg" width="64" height="64" fill="none" id="activity">
  <path fill="#0062b0" opacity=".4" d="M46.667 9.333H17.333c-2.485 0-3.727 0-4.707.406a5.333 5.333 0 0 0-2.887 2.886c-.406.98-.406 2.223-.406 4.708v29.333c0 2.485 0 3.728.406 4.708a5.333 5.333 0 0 0 2.887 2.886c.98.406 2.222.406 4.707.406h29.334c2.485 0 3.727 0 4.707-.406a5.334 5.334 0 0 0 2.887-2.886c.406-.98.406-2.223.406-4.708V17.333c0-2.485 0-3.727-.406-4.708a5.333 5.333 0 0 0-2.887-2.886c-.98-.406-2.222-.406-4.707-.406Z"></path>
  <path fill="#0062b0" opacity=".4" fill-rule="evenodd" d="M17.286 8h29.428c1.202 0 2.172 0 2.962.054.811.055 1.529.172 2.209.453a6.667 6.667 0 0 1 3.608 3.608c.281.68.398 1.398.453 2.21.054.789.054 1.759.054 2.961v29.428c0 1.202 0 2.172-.054 2.962-.055.811-.172 1.529-.453 2.209a6.666 6.666 0 0 1-3.608 3.608c-.68.281-1.398.398-2.21.453-.789.054-1.759.054-2.961.054H17.286c-1.202 0-2.172 0-2.962-.054-.811-.055-1.529-.172-2.209-.453a6.667 6.667 0 0 1-3.608-3.608c-.281-.68-.398-1.398-.453-2.21C8 48.887 8 47.917 8 46.715V17.286c0-1.202 0-2.172.054-2.962.055-.811.172-1.529.453-2.209a6.667 6.667 0 0 1 3.608-3.608c.68-.281 1.398-.398 2.21-.453C15.113 8 16.083 8 17.285 8Zm-2.78 2.714c-.676.046-1.07.133-1.37.257a4 4 0 0 0-2.165 2.165c-.124.3-.21.694-.257 1.37-.047.688-.047 1.567-.047 2.827v29.334c0 1.26 0 2.14.047 2.827.046.676.133 1.07.257 1.37a4 4 0 0 0 2.165 2.165c.3.124.694.21 1.37.257.688.047 1.567.047 2.827.047h29.334c1.26 0 2.14 0 2.827-.047.676-.046 1.07-.133 1.37-.257a4 4 0 0 0 2.165-2.165c.124-.3.21-.694.257-1.37.047-.688.047-1.567.047-2.827V17.333c0-1.26 0-2.14-.047-2.827-.046-.676-.133-1.07-.257-1.37a4 4 0 0 0-2.165-2.165c-.3-.124-.694-.21-1.37-.257-.688-.047-1.567-.047-2.827-.047H17.333c-1.26 0-2.14 0-2.827.047Z" clip-rule="evenodd"></path>
  <path fill="#0062b0" fill-rule="evenodd" d="M22.424 21.413a2.667 2.667 0 0 1 3.01.145c.472.359.722.892.88 1.273.173.414.355.959.566 1.591l4.788 14.366c.228.682.375 1.123.503 1.429l.034.08.043-.076c.16-.29.356-.711.658-1.365l4.16-9.014c.23-.498.434-.94.623-1.278.183-.33.456-.763.904-1.054a2.667 2.667 0 0 1 2.84-.045c.456.278.743.702.937 1.026.2.333.416.767.662 1.258l1.608 3.216a9 9 0 0 0 .183.357l.004.007h.008c.08.004.188.005.401.005H48A1.333 1.333 0 0 1 48 36h-2.848c-.307.001-.69.003-1.057-.101a2.666 2.666 0 0 1-1.24-.766c-.256-.281-.426-.625-.563-.9l-.037-.075-1.587-3.173a19.418 19.418 0 0 0-.619-1.178l-.031.055c-.133.239-.294.586-.551 1.142l-4.161 9.016c-.274.594-.511 1.107-.725 1.493-.199.359-.503.854-1.006 1.157a2.667 2.667 0 0 1-2.993-.166c-.467-.357-.714-.882-.872-1.26-.17-.408-.349-.944-.556-1.565l-4.788-14.365c-.232-.695-.383-1.144-.513-1.457a4.027 4.027 0 0 0-.035-.082l-.043.079c-.16.298-.353.73-.65 1.4l-2.712 6.1-.036.081c-.13.294-.291.662-.548.963-.335.392-.776.68-1.271.826-.38.112-.782.11-1.103.11H16a1.333 1.333 0 1 1 0-2.667h1.367a9.04 9.04 0 0 0 .43-.006l.003-.007c.039-.074.086-.18.176-.383l2.732-6.146c.27-.61.504-1.134.715-1.53.195-.364.495-.87 1-1.182Z" clip-rule="evenodd"></path>
</svg>
