<svg xmlns="http://www.w3.org/2000/svg" width="64" height="64" fill="none" id="delete">
  <path fill="#0062b0" opacity=".4" d="M17.334 20h29.333l-2.644 33.647a4 4 0 0 1-3.988 3.686h-16.07a4 4 0 0 1-3.988-3.686L17.334 20Z"></path>
  <path fill="#0062b0" opacity=".4" fill-rule="evenodd" d="M15.891 18.666H48.11L45.352 53.75a5.333 5.333 0 0 1-5.317 4.916h-16.07a5.333 5.333 0 0 1-5.317-4.916L15.89 18.666Zm2.885 2.667 2.53 32.209a2.667 2.667 0 0 0 2.659 2.457h16.07c1.392 0 2.55-1.07 2.659-2.457l2.53-32.21H18.776Z" clip-rule="evenodd"></path>
  <path fill="#0062b0" fill-rule="evenodd" d="M32 32c.736 0 1.333.597 1.333 1.333V44a1.333 1.333 0 1 1-2.666 0V33.333c0-.736.597-1.333 1.333-1.333Z" clip-rule="evenodd"></path>
  <path fill="#0062b0" opacity=".4" d="M22.667 8c0-.737.597-1.334 1.333-1.334h16c.736 0 1.333.597 1.333 1.333v4H22.667V8Z"></path>
  <path fill="#0062b0" fill-rule="evenodd" d="M21.334 8A2.667 2.667 0 0 1 24 5.333h16A2.667 2.667 0 0 1 42.667 8v5.333H21.333V8ZM40 8H24v2.666h16V8Z" clip-rule="evenodd"></path>
  <path fill="#0062b0" d="M12 14.667A2.667 2.667 0 0 1 14.667 12h34.666A2.667 2.667 0 0 1 52 14.667v2.666A2.667 2.667 0 0 1 49.333 20H14.667A2.667 2.667 0 0 1 12 17.333v-2.666Z"></path>
  <path fill="#0062b0" fill-rule="evenodd" d="M10.667 14.666a4 4 0 0 1 4-4h34.666a4 4 0 0 1 4 4v2.667a4 4 0 0 1-4 4H14.667a4 4 0 0 1-4-4v-2.667Zm4-1.333c-.737 0-1.334.597-1.334 1.333v2.667c0 .736.597 1.333 1.334 1.333h34.666c.737 0 1.334-.597 1.334-1.333v-2.667c0-.736-.597-1.333-1.334-1.333H14.667Z" clip-rule="evenodd"></path>
</svg>
