<svg xmlns="http://www.w3.org/2000/svg" width="64" height="64" fill="none" id="document">
  <path fill="#2B3151" fill-rule="evenodd" d="M36.347 5.77a1.333 1.333 0 0 1 1.883-.09l14.667 13.333a1.333 1.333 0 0 1-1.794 1.973L36.436 7.653a1.333 1.333 0 0 1-.09-1.884Z" clip-rule="evenodd"></path>
  <path fill="#0062b0" opacity=".4" fill-rule="evenodd" d="M37.821 5.333H18.667c-2.485 0-3.728 0-4.708.406a5.333 5.333 0 0 0-2.886 2.886c-.406.98-.406 2.223-.406 4.708v37.333c0 2.485 0 3.728.406 4.708a5.334 5.334 0 0 0 2.886 2.886c.98.406 2.223.406 4.708.406h26.666c2.485 0 3.728 0 4.708-.406a5.333 5.333 0 0 0 2.886-2.886c.406-.98.406-2.223.406-4.708V19.4L37.821 5.333Z" clip-rule="evenodd"></path>
  <path fill="#959AB4" d="M37.334 14.666v-8L52 19.999h-9.333a5.333 5.333 0 0 1-5.334-5.333Z"></path>
  <path fill="#959AB4" fill-rule="evenodd" d="M36.794 5.447a1.333 1.333 0 0 1 1.436.233l14.667 13.333a1.333 1.333 0 0 1-.897 2.32h-9.333A6.667 6.667 0 0 1 36 14.666v-8c0-.527.311-1.005.794-1.219Zm1.873 4.233v4.986a4 4 0 0 0 4 4h5.884L38.667 9.68Z" clip-rule="evenodd"></path>
  <path fill="#0062b0" fill-rule="evenodd" d="M20 31.333c0-.736.597-1.333 1.333-1.333h21.334a1.333 1.333 0 0 1 0 2.667H21.333A1.333 1.333 0 0 1 20 31.333zm0 8c0-.736.597-1.333 1.333-1.333h21.334a1.333 1.333 0 0 1 0 2.667H21.333A1.333 1.333 0 0 1 20 39.333zm0 8c0-.736.597-1.333 1.333-1.333h21.334a1.333 1.333 0 0 1 0 2.667H21.333A1.333 1.333 0 0 1 20 47.333z" clip-rule="evenodd"></path>
</svg>
