<svg xmlns="http://www.w3.org/2000/svg" width="64" height="64" fill="none" id="face-sacn">
  <path fill="#D0D2E0" d="M9.333 14.666v34.667a5.333 5.333 0 0 0 5.334 5.333h34.666a5.333 5.333 0 0 0 5.334-5.333V14.666a5.333 5.333 0 0 0-5.334-5.333H14.667a5.333 5.333 0 0 0-5.334 5.333Z"></path>
  <path fill="#D0D2E0" fill-rule="evenodd" d="M14.667 10.667a4 4 0 0 0-4 4v34.666a4 4 0 0 0 4 4h34.666a4 4 0 0 0 4-4V14.667a4 4 0 0 0-4-4H14.667Zm-6.667 4A6.667 6.667 0 0 1 14.667 8h34.666A6.667 6.667 0 0 1 56 14.667v34.666A6.667 6.667 0 0 1 49.333 56H14.667A6.667 6.667 0 0 1 8 49.333V14.667Z" clip-rule="evenodd"></path>
  <path fill="#959AB4" fill-rule="evenodd" d="M14.667 10.667a4 4 0 0 0-4 4V20A1.333 1.333 0 0 1 8 20v-5.333A6.667 6.667 0 0 1 14.667 8H20a1.333 1.333 0 1 1 0 2.667h-5.333zm0 42.666a4 4 0 0 1-4-4V44A1.333 1.333 0 0 0 8 44v5.333A6.667 6.667 0 0 0 14.667 56H20a1.333 1.333 0 0 0 0-2.667h-5.333zm34.666-42.666a4 4 0 0 1 4 4V20A1.333 1.333 0 0 0 56 20v-5.333A6.667 6.667 0 0 0 49.333 8H44a1.333 1.333 0 1 0 0 2.667h5.333zm0 42.666a4 4 0 0 0 4-4V44A1.333 1.333 0 0 1 56 44v5.333A6.667 6.667 0 0 1 49.333 56H44a1.333 1.333 0 0 1 0-2.667h5.333z" clip-rule="evenodd"></path>
  <path fill="#2B3151" fill-rule="evenodd" d="M22 19.467c.736 0 1.333.597 1.333 1.333v2.222a1.333 1.333 0 0 1-2.666 0V20.8c0-.736.597-1.333 1.333-1.333zm20 0c.736 0 1.333.597 1.333 1.333v2.222a1.333 1.333 0 0 1-2.666 0V20.8c0-.736.597-1.333 1.333-1.333zm-8.889 4.444c.736 0 1.333.597 1.333 1.333v6.223a4 4 0 0 1-4 4h-.666a1.333 1.333 0 1 1 0-2.667h.666c.737 0 1.334-.597 1.334-1.333v-6.223c0-.736.597-1.333 1.333-1.333zM21.263 37.466a1.333 1.333 0 0 1 1.848.375c1.422 2.145 4.755 3.848 8.889 3.848 4.134 0 7.467-1.703 8.889-3.848a1.333 1.333 0 0 1 2.222 1.473c-2.056 3.102-6.37 5.041-11.111 5.041-4.74 0-9.055-1.94-11.111-5.04a1.333 1.333 0 0 1 .374-1.849z" clip-rule="evenodd"></path>
</svg>
