<svg xmlns="http://www.w3.org/2000/svg" width="64" height="64" fill="none" id="home">
  <path fill="#0062b0" opacity=".4" d="M9.333 28.635c0-1.661.774-3.227 2.094-4.237L28.76 11.144a5.333 5.333 0 0 1 6.48 0l17.333 13.254a5.333 5.333 0 0 1 2.094 4.237V50a5.333 5.333 0 0 1-5.334 5.334H14.667a5.333 5.333 0 0 1-5.334-5.334V28.635Z"></path>
  <path fill="#0062b0" opacity="0" fill-rule="evenodd" d="M34.43 12.203a4 4 0 0 0-4.86 0L12.237 25.458a4 4 0 0 0-1.57 3.177V50a4 4 0 0 0 4 4h34.666a4 4 0 0 0 4-4V28.635a4 4 0 0 0-1.57-3.177L34.43 12.203Zm-6.48-2.118a6.667 6.667 0 0 1 8.1 0L53.383 23.34A6.667 6.667 0 0 1 56 28.635V50a6.667 6.667 0 0 1-6.667 6.666H14.667A6.667 6.667 0 0 1 8 50V28.635c0-2.076.968-4.034 2.617-5.295L27.95 10.085Z" clip-rule="evenodd"></path>
  <path fill="#0062b0" d="M24 40.667v14.666h16V40.667A2.667 2.667 0 0 0 37.333 38H26.667A2.667 2.667 0 0 0 24 40.667Z"></path>
  <path fill="#0062b0" fill-rule="evenodd" d="M26.667 39.334c-.737 0-1.334.597-1.334 1.333V54h13.334V40.667c0-.736-.597-1.333-1.334-1.333H26.667Zm-4 1.333a4 4 0 0 1 4-4h10.666a4 4 0 0 1 4 4v16H22.667v-16Z" clip-rule="evenodd"></path>
</svg>
