<svg xmlns="http://www.w3.org/2000/svg" width="64" height="64" fill="none" id="logout">
  <path fill="#0062b0" opacity=".4" d="M46.667 6.666H17.333A5.333 5.333 0 0 0 12 11.999v40a5.333 5.333 0 0 0 5.333 5.334h29.334A5.333 5.333 0 0 0 52 51.999V12a5.333 5.333 0 0 0-5.333-5.333Z"></path>
  <path fill="#0062b0" opacity="0" fill-rule="evenodd" d="M10.666 12a6.667 6.667 0 0 1 6.667-6.667h29.334A6.667 6.667 0 0 1 53.332 12v40a6.667 6.667 0 0 1-6.666 6.666H17.332A6.667 6.667 0 0 1 10.667 52V12Zm6.667-4a4 4 0 0 0-4 4v40a4 4 0 0 0 4 4h29.334a4 4 0 0 0 4-4V12a4 4 0 0 0-4-4H17.332Z" clip-rule="evenodd"></path>
  <path fill="#0062b0" fill-rule="evenodd" d="M44.39 24.39c-.52.521-.52 1.365 0 1.886l4.391 4.39H28a1.333 1.333 0 1 0 0 2.667H48.78l-4.39 4.39a1.333 1.333 0 1 0 1.885 1.886l6.667-6.666c.52-.52.52-1.365 0-1.886l-6.667-6.666a1.333 1.333 0 0 0-1.886 0Z" clip-rule="evenodd"></path>
</svg>
