<svg xmlns="http://www.w3.org/2000/svg" width="64" height="64" fill="none" id="search">
  <path fill="#2B3151" fill-rule="evenodd" d="m51.331 53.218-16.97-16.971 1.885-1.886 16.97 16.97a1.333 1.333 0 1 1-1.885 1.886Z" clip-rule="evenodd"></path>
  <path fill="#D0D2E0" d="M39.39 25.562c0 7.637-6.191 13.828-13.828 13.828-7.638 0-13.829-6.191-13.829-13.828s6.191-13.829 13.829-13.829c7.637 0 13.828 6.192 13.828 13.829Z"></path>
  <path fill="#D0D2E0" fill-rule="evenodd" d="M25.562 13.067c-6.901 0-12.495 5.594-12.495 12.495 0 6.901 5.594 12.495 12.495 12.495 6.9 0 12.495-5.594 12.495-12.495 0-6.9-5.595-12.495-12.495-12.495ZM10.4 25.562c0-8.373 6.788-15.162 15.162-15.162 8.373 0 15.161 6.789 15.161 15.162 0 8.374-6.788 15.162-15.161 15.162-8.374 0-15.162-6.788-15.162-15.162Z" clip-rule="evenodd"></path>
</svg>
